<svg xmlns="http://www.w3.org/2000/svg" style="display: none;">
<symbol id="icon-telegram" viewBox="0 0 24 24">
  <path d="M21.05 2.39a1.43 1.43 0 0 0-1.52-.18L2.7 10.11a1.41 1.41 0 0 0 .12 2.61l4.94 1.54 1.8 5.78a1.42 1.42 0 0 0 2.6.24l2.5-4.33 4.55 3.38a1.43 1.43 0 0 0 2.24-0.89l2.35-16.41a1.42 1.42 0 0 0-.95-1.83z"/>
</symbol>
<symbol id="icon-whatsapp" viewBox="0 0 24 24">
  <path d="M17.47 14.37c-.29-.14-1.7-.84-1.96-.93-.26-.1-.45-.14-.64.14s-.74.93-.9 1.12c-.17.2-.33.21-.62.07s-1.21-.45-2.3-1.43c-.85-.76-1.42-1.7-1.58-1.99s-.02-.44.12-.59c.12-.13.26-.33.39-.49.13-.16.17-.28.25-.47.08-.2.04-.37-.02-.52s-.64-1.54-.88-2.11c-.23-.56-.47-.49-.65-.5l-.55-.01a1.05 1.05 0 0 0-.76.35 3.19 3.19 0 0 0-1 2.37c0 1.39 1 2.74 1.14 2.93.14.19 2.05 3.13 4.96 4.39.69.3 1.22.48 1.64.62.69.22 1.32.19 1.82.11.55-.08 1.7-.69 1.94-1.36.24-.67.24-1.24.17-1.36-.07-.12-.26-.2-.55-.34z"/>
</symbol>
</svg>
